<svg width="22" height="30" viewBox="0 0 22 30" fill="none" xmlns="http://www.w3.org/2000/svg">
<path d="M10.9217 0.0081104C13.6018 0.123393 16.1373 1.26958 18.0105 3.21265C19.8837 5.15571 20.9534 7.74909 21.0012 10.4633C21.0411 12.9231 20.2323 15.3201 18.7141 17.2415C17.1459 19.2559 15.7032 21.3672 14.3943 23.5632L11.4269 28.4738C11.331 28.6358 11.1952 28.7699 11.0329 28.8629C10.8706 28.956 10.6871 29.0049 10.5006 29.0049C10.314 29.0049 10.1306 28.956 9.96821 28.8629C9.80586 28.7699 9.67012 28.6358 9.57421 28.4738L6.60558 23.5632C5.24332 21.3279 3.7641 19.1678 2.17423 17.0921C0.761953 15.2399 -0.00279236 12.9655 -4.19617e-05 10.626C0.00146103 9.19506 0.288233 7.77916 0.843105 6.46302C1.39798 5.14687 2.20955 3.95756 3.22924 2.96624C4.24892 1.97493 5.45577 1.20201 6.77754 0.693721C8.09931 0.185437 9.50883 -0.0477551 10.9217 0.0081104ZM10.509 16.2009C11.971 16.2009 13.3731 15.6131 14.4069 14.5669C15.4407 13.5208 16.0214 12.1019 16.0214 10.6223C16.0208 9.14326 15.4397 7.72496 14.406 6.67931C13.3723 5.63366 11.9705 5.04626 10.509 5.04626C9.04608 5.04626 7.64304 5.63393 6.60807 6.68016C5.5731 7.72639 4.99086 9.14559 4.98927 10.626C4.98974 11.3589 5.13291 12.0845 5.4106 12.7614C5.68829 13.4382 6.09506 14.0531 6.60766 14.5708C7.12025 15.0885 7.72863 15.499 8.39804 15.7786C9.06744 16.0583 9.78474 16.2018 10.509 16.2009Z" fill="white"/>
</svg>
