<svg width="188" height="163" viewBox="0 0 188 163" fill="none" xmlns="http://www.w3.org/2000/svg">
<g clip-path="url(#clip0_259_427)">
<path d="M145.73 67.1521C139.16 67.1505 132.836 64.6376 128.045 60.124C123.254 55.6105 120.354 49.4351 119.935 42.8526C119.516 36.2701 121.61 29.7745 125.79 24.6858C129.971 19.5971 135.924 16.2971 142.441 15.4563C148.958 14.6156 155.55 16.2972 160.876 20.1595C166.202 24.0218 169.864 29.7749 171.117 36.2498C172.369 42.7247 171.119 49.4355 167.621 55.0185C164.122 60.6015 158.637 64.6378 152.28 66.3071C150.142 66.8677 147.94 67.1516 145.73 67.1521ZM145.811 19.0829C141.94 19.0789 138.136 20.0961 134.781 22.0327C131.425 23.9693 128.635 26.7572 126.69 30.1171C124.746 33.477 123.715 37.2909 123.702 41.1766C123.688 45.0623 124.692 48.8834 126.612 52.257C128.533 55.6307 131.303 58.4383 134.645 60.3987C137.988 62.3591 141.784 63.4033 145.655 63.4268C149.526 63.4503 153.335 62.4522 156.7 60.5325C160.066 58.6128 162.869 55.839 164.831 52.4889C166.795 49.1216 167.84 45.2938 167.861 41.3916C167.881 37.4895 166.876 33.6508 164.947 30.2629C163.018 26.8749 160.234 24.0575 156.874 22.0946C153.514 20.1318 149.698 19.0929 145.811 19.0829Z" fill="#B1C077"/>
<path d="M157.773 82.5421C157.097 82.5431 156.433 82.3642 155.849 82.0236C155.265 81.683 154.781 81.1928 154.447 80.6033L152.094 76.4472C152.077 76.4211 152.053 76.4009 152.024 76.3894C151.996 76.3779 151.964 76.3757 151.934 76.3832C147.697 77.1394 143.358 77.1127 139.131 76.3043C139.101 76.297 139.07 76.299 139.042 76.31C139.013 76.321 138.989 76.3405 138.972 76.3659L136.574 80.4801C136.062 81.3568 135.223 81.9933 134.244 82.2497C133.264 82.5061 132.223 82.3614 131.349 81.8474L117.547 73.7176C116.674 73.2028 116.041 72.3613 115.785 71.378C115.53 70.3946 115.674 69.3497 116.185 68.4726L118.59 64.356C118.604 64.3286 118.609 64.2975 118.605 64.2671C118.601 64.2366 118.587 64.2082 118.566 64.186C115.799 60.8776 113.659 57.0897 112.249 53.0088C112.241 52.9791 112.223 52.9527 112.2 52.9333C112.176 52.9139 112.147 52.9023 112.116 52.9004L107.345 52.8634C106.333 52.8563 105.365 52.4459 104.653 51.7225C103.942 50.9992 103.545 50.0219 103.551 49.0055L103.662 32.9429C103.671 31.9271 104.081 30.9564 104.802 30.2432C105.523 29.5299 106.495 29.1321 107.507 29.1367L112.263 29.1687C112.293 29.165 112.322 29.1531 112.346 29.1345C112.369 29.1158 112.388 29.0911 112.398 29.0628C113.877 25.0071 116.071 21.2518 118.875 17.9767C118.897 17.955 118.911 17.9267 118.916 17.8962C118.921 17.8656 118.916 17.8343 118.902 17.8067L116.553 13.6531C116.054 12.7692 115.924 11.7226 116.193 10.7429C116.462 9.76329 117.107 8.93069 117.986 8.4279L131.896 0.492726C132.777 -0.00857111 133.82 -0.138624 134.797 0.131098C135.773 0.40082 136.603 1.04829 137.104 1.93145L139.458 6.08751C139.474 6.1136 139.498 6.13382 139.527 6.14531C139.556 6.1568 139.587 6.15899 139.617 6.15156C143.854 5.39535 148.193 5.42207 152.42 6.2304C152.45 6.23806 152.481 6.23625 152.51 6.22521C152.538 6.21417 152.563 6.19445 152.58 6.16881L154.982 2.05463C155.236 1.6202 155.572 1.24021 155.972 0.936362C156.372 0.632514 156.828 0.410768 157.314 0.283794C157.799 0.15682 158.305 0.127106 158.802 0.196349C159.298 0.265593 159.777 0.432438 160.21 0.68735L174.009 8.81715C174.882 9.33241 175.516 10.1743 175.771 11.1581C176.026 12.1419 175.883 13.1872 175.371 14.0646L172.968 18.1787C172.954 18.2061 172.949 18.2372 172.954 18.2677C172.958 18.2981 172.972 18.3265 172.993 18.3487C175.758 21.6592 177.898 25.4476 179.31 29.5284C179.318 29.5581 179.335 29.5845 179.359 29.6039C179.383 29.6233 179.412 29.6348 179.442 29.6368L184.206 29.6689C184.707 29.6721 185.203 29.7745 185.666 29.9703C186.128 30.1661 186.547 30.4515 186.899 30.81C187.251 31.1686 187.529 31.5933 187.718 32.0599C187.906 32.5265 188.001 33.0258 187.997 33.5293L187.887 49.5893C187.88 50.6011 187.475 51.569 186.76 52.2824C186.045 52.9958 185.079 53.3967 184.071 53.398H184.044L179.288 53.3561C179.257 53.3581 179.228 53.3696 179.204 53.389C179.181 53.4085 179.163 53.4349 179.155 53.4645C178.416 55.4879 177.499 57.441 176.414 59.3007C175.327 61.1588 174.076 62.915 172.676 64.5481C172.655 64.571 172.642 64.5996 172.637 64.6303C172.632 64.661 172.636 64.6924 172.649 64.7206L174.998 68.8767C175.497 69.7606 175.627 70.8072 175.358 71.7869C175.089 72.7665 174.444 73.5991 173.565 74.1019L159.643 82.0445C159.072 82.3692 158.428 82.5406 157.773 82.5421ZM151.964 72.6878C152.64 72.687 153.304 72.8656 153.889 73.2057C154.473 73.5458 154.958 74.0352 155.294 74.6242L157.647 78.7802C157.656 78.7961 157.668 78.8101 157.682 78.8213C157.696 78.8325 157.712 78.8408 157.73 78.8456C157.747 78.8505 157.765 78.8517 157.783 78.8494C157.801 78.847 157.818 78.8411 157.834 78.832L171.746 70.8968C171.777 70.8783 171.8 70.8484 171.81 70.8136C171.819 70.7787 171.815 70.7414 171.798 70.7096L169.459 66.556C169.071 65.8653 168.906 65.0714 168.984 64.2825C169.063 63.4937 169.382 62.7485 169.898 62.1486C171.153 60.6829 172.274 59.1073 173.248 57.4407C174.221 55.7729 175.042 54.0208 175.702 52.2056C175.973 51.4619 176.464 50.8192 177.109 50.3642C177.755 49.9091 178.524 49.6636 179.312 49.6608L184.068 49.6953C184.105 49.6953 184.14 49.6807 184.166 49.6549C184.191 49.629 184.206 49.5939 184.206 49.5573L184.316 33.4948C184.316 33.4586 184.302 33.4239 184.277 33.3981C184.252 33.3723 184.217 33.3575 184.181 33.3568L179.418 33.3248C178.63 33.3156 177.864 33.0632 177.224 32.6017C176.583 32.1402 176.1 31.4921 175.84 30.7454C174.576 27.0873 172.658 23.6918 170.178 20.7261C169.67 20.1187 169.361 19.3688 169.294 18.5787C169.226 17.7886 169.403 16.9968 169.8 16.3113L172.205 12.1972C172.223 12.1652 172.227 12.1278 172.218 12.0925C172.209 12.0573 172.187 12.0269 172.156 12.0075L158.354 3.87768C158.339 3.86788 158.321 3.86149 158.303 3.85894C158.285 3.8564 158.266 3.85774 158.249 3.8629C158.231 3.86744 158.215 3.87544 158.2 3.88644C158.186 3.89744 158.174 3.91122 158.165 3.92695L155.76 8.04112C155.358 8.72376 154.756 9.26521 154.036 9.59151C153.316 9.9178 152.514 10.013 151.738 9.86417C147.95 9.13959 144.062 9.11537 140.265 9.79272C139.487 9.93168 138.685 9.82591 137.969 9.48989C137.253 9.15386 136.658 8.60399 136.265 7.91548L133.911 3.75943C133.893 3.72769 133.863 3.70449 133.827 3.69482C133.792 3.68514 133.754 3.68977 133.722 3.70769L119.805 11.6478C119.773 11.6659 119.75 11.6957 119.741 11.7308C119.731 11.7658 119.736 11.8033 119.753 11.835L122.095 15.9862C122.482 16.677 122.647 17.4708 122.568 18.2595C122.49 19.0481 122.171 19.7933 121.655 20.3935C119.141 23.3318 117.174 26.6996 115.846 30.3365C115.578 31.0774 115.09 31.7179 114.447 32.1712C113.805 32.6246 113.039 32.869 112.254 32.8715H112.229L107.473 32.8395C107.437 32.8395 107.402 32.8537 107.377 32.879C107.351 32.9043 107.336 32.9388 107.336 32.975L107.225 49.0375C107.225 49.0559 107.228 49.0743 107.235 49.0912C107.243 49.1082 107.253 49.1235 107.267 49.136C107.279 49.1489 107.294 49.1591 107.311 49.1659C107.327 49.1727 107.345 49.1759 107.363 49.1754L112.126 49.2099C112.917 49.2176 113.686 49.4702 114.328 49.9332C114.97 50.3962 115.454 51.0471 115.714 51.7967C116.977 55.4545 118.895 58.85 121.373 61.816C121.882 62.423 122.191 63.1728 122.259 63.963C122.327 64.7532 122.151 65.5452 121.754 66.2308L119.348 70.3449C119.339 70.3606 119.332 70.3781 119.33 70.3963C119.327 70.4146 119.329 70.4332 119.334 70.4509C119.338 70.4684 119.346 70.4849 119.357 70.4992C119.368 70.5136 119.382 70.5257 119.398 70.5346L133.2 78.6644C133.233 78.6776 133.269 78.6776 133.303 78.6644C133.32 78.6616 133.337 78.6545 133.352 78.6438C133.366 78.6331 133.378 78.6191 133.386 78.6029L135.791 74.4862C136.193 73.8038 136.795 73.2626 137.515 72.9367C138.235 72.6109 139.038 72.5162 139.813 72.6656C143.603 73.3882 147.491 73.4115 151.289 72.7346C151.512 72.6984 151.738 72.6819 151.964 72.6853V72.6878Z" fill="#B1C077"/>
<path d="M94.0762 82.3869C90.7962 82.3957 87.6257 81.203 85.1592 79.0326C82.6926 76.8622 81.0995 73.8631 80.6786 70.5977C80.2576 67.3323 81.0378 64.0249 82.8727 61.2957C84.7076 58.5665 87.4712 56.6029 90.6454 55.7733C93.8195 54.9436 97.1862 55.3048 100.114 56.7891C103.042 58.2735 105.33 60.779 106.549 63.8358C107.767 66.8926 107.834 70.2908 106.735 73.3932C105.636 76.4955 103.447 79.0889 100.58 80.687C98.5896 81.796 96.3522 82.3808 94.0762 82.3869ZM94.0394 58.3301C91.7353 58.3344 89.4965 59.099 87.6678 60.5061C85.8391 61.9132 84.5219 63.8848 83.919 66.1172C83.3162 68.3497 83.4611 70.7191 84.3315 72.8607C85.2019 75.0023 86.7495 76.7973 88.736 77.9692C90.7225 79.1412 93.0377 79.625 95.325 79.3463C97.6123 79.0677 99.745 78.0418 101.394 76.4269C103.044 74.812 104.119 72.6975 104.454 70.409C104.788 68.1206 104.365 65.7851 103.247 63.7622C102.34 62.1104 101.006 60.7343 99.3854 59.7785C97.7653 58.8227 95.9186 58.3223 94.0394 58.3301Z" fill="#B1C077"/>
<path d="M97.7031 90.5561H97.659L89.7003 90.4083C89.3778 90.4028 89.0595 90.3336 88.7637 90.2046C88.4678 90.0756 88.2002 89.8893 87.9762 89.6563C87.7521 89.4234 87.576 89.1484 87.4579 88.8471C87.3398 88.5458 87.282 88.2241 87.2879 87.9004L87.3222 85.8679C85.4812 85.1358 83.7719 84.1064 82.2619 82.8205L80.4949 83.8059C80.2129 83.9629 79.9029 84.0627 79.5825 84.0994C79.2621 84.1361 78.9377 84.1091 78.6277 84.0198C78.3178 83.9306 78.0284 83.7809 77.7761 83.5794C77.5238 83.3778 77.3135 83.1283 77.1573 82.8451L73.3068 75.8609C73.15 75.5777 73.0503 75.2663 73.0135 74.9444C72.9768 74.6225 73.0036 74.2966 73.0925 73.9851C73.1814 73.6737 73.3306 73.3829 73.5316 73.1294C73.7326 72.8759 73.9815 72.6648 74.2639 72.5079L76.0308 71.5225C75.745 69.559 75.7815 67.5617 76.1388 65.6099L74.4013 64.5629C74.1248 64.3963 73.8838 64.1765 73.6919 63.9163C73.5001 63.6561 73.3612 63.3604 73.2833 63.0463C73.2053 62.7322 73.1898 62.4057 73.2377 62.0855C73.2855 61.7654 73.3957 61.4578 73.562 61.1804L77.6579 54.3415C77.8237 54.0638 78.0425 53.8216 78.3016 53.6288C78.5608 53.4359 78.8552 53.2963 79.1682 53.2178C79.4811 53.1393 79.8064 53.1236 80.1254 53.1714C80.4445 53.2192 80.751 53.3297 81.0274 53.4965L82.7625 54.5436C84.3151 53.3138 86.0554 52.3438 87.9161 51.671L87.9529 49.641C87.9555 49.315 88.0225 48.9927 88.15 48.6928C88.2776 48.393 88.4631 48.1215 88.696 47.8942C88.9288 47.6669 89.2043 47.4882 89.5065 47.3685C89.8086 47.2489 90.1314 47.1906 90.4561 47.1972L98.4075 47.3351C98.73 47.3406 99.0482 47.4098 99.3441 47.5388C99.6399 47.6679 99.9075 47.8542 100.132 48.0871C100.356 48.32 100.532 48.595 100.65 48.8963C100.768 49.1976 100.826 49.5193 100.82 49.8431L100.786 51.8755C102.627 52.6076 104.336 53.637 105.846 54.9229L107.613 53.9375C107.895 53.7805 108.205 53.6807 108.525 53.644C108.846 53.6073 109.17 53.6344 109.48 53.7236C109.79 53.8128 110.079 53.9625 110.332 54.1641C110.584 54.3656 110.794 54.6151 110.95 54.8983L114.808 61.8801C114.965 62.1632 115.065 62.4747 115.102 62.7965C115.138 63.1184 115.112 63.4444 115.023 63.7558C114.934 64.0673 114.784 64.3581 114.583 64.6115C114.382 64.865 114.134 65.0762 113.851 65.233L112.084 66.2184C112.37 68.182 112.334 70.1793 111.976 72.131L113.714 73.178C113.99 73.3447 114.231 73.5644 114.423 73.8247C114.615 74.0849 114.754 74.3805 114.832 74.6947C114.91 75.0088 114.925 75.3353 114.877 75.6554C114.83 75.9756 114.719 76.2832 114.553 76.5605L110.457 83.4043C110.291 83.6821 110.073 83.9243 109.813 84.1171C109.554 84.3099 109.26 84.4496 108.947 84.5281C108.634 84.6065 108.309 84.6223 107.99 84.5745C107.671 84.5267 107.364 84.4162 107.088 84.2493L105.353 83.2023C104.58 83.8158 103.759 84.3661 102.899 84.848C102.033 85.3301 101.13 85.742 100.199 86.0798L100.162 88.1098C100.151 88.7559 99.8879 89.3718 99.4288 89.8248C98.9697 90.2778 98.3518 90.5316 97.7081 90.5315L97.7031 90.5561ZM90.2475 87.4692L97.2221 87.5924L97.2541 85.7102C97.2647 85.2007 97.4316 84.7069 97.732 84.296C98.0324 83.8851 98.4516 83.5772 98.9327 83.4142C100.685 82.8166 102.317 81.9088 103.75 80.7338C104.142 80.4093 104.624 80.2146 105.13 80.1766C105.636 80.1387 106.142 80.2593 106.577 80.522L108.185 81.4901L111.787 75.479L110.177 74.5059C109.741 74.2433 109.397 73.8512 109.193 73.3839C108.989 72.9165 108.934 72.3969 109.036 71.897C109.404 70.0774 109.439 68.2056 109.137 66.3736C109.052 65.8713 109.125 65.3549 109.344 64.8956C109.564 64.4363 109.92 64.0567 110.364 63.8091L112.003 62.8975L108.619 56.7731L106.982 57.6846C106.538 57.932 106.028 58.0347 105.523 57.9786C105.018 57.9226 104.542 57.7105 104.162 57.3717C102.774 56.1452 101.175 55.1827 99.4431 54.5312C98.9665 54.3537 98.5566 54.032 98.27 53.6106C97.9833 53.1891 97.8342 52.6888 97.843 52.1785L97.8749 50.2939L90.9003 50.1707L90.8684 52.0529C90.8578 52.5624 90.6909 53.0563 90.3905 53.4671C90.0901 53.878 89.6708 54.1859 89.1898 54.3489C87.4375 54.9466 85.806 55.8544 84.3724 57.0293C83.9809 57.3539 83.4987 57.5486 82.9924 57.5865C82.486 57.6244 81.9804 57.5038 81.5452 57.2412L79.9378 56.273L76.3376 62.2743L77.9475 63.2474C78.3831 63.5098 78.7268 63.9015 78.9311 64.3684C79.1355 64.8352 79.1906 65.3542 79.0887 65.8538C78.7207 67.6743 78.6866 69.5469 78.9881 71.3796C79.0728 71.882 79.0003 72.3984 78.7806 72.8577C78.5608 73.317 78.2046 73.6966 77.761 73.9442L76.1241 74.8557L79.5059 80.9802L81.1428 80.0687C81.587 79.821 82.0968 79.7178 82.6019 79.7735C83.1069 79.8291 83.5824 80.0407 83.9626 80.3791C85.3501 81.6072 86.9495 82.5706 88.6818 83.222C89.1584 83.3995 89.5683 83.7212 89.855 84.1427C90.1416 84.5641 90.2908 85.0645 90.2819 85.5747L90.2475 87.4692Z" fill="#B1C077"/>
<path d="M149.77 138.167H13.321C9.78793 138.163 6.40071 136.753 3.90247 134.245C1.40424 131.737 -0.000985358 128.337 -0.00488281 124.79V45.1795C-0.000985358 41.6329 1.40424 38.2326 3.90247 35.7247C6.40071 33.2169 9.78793 31.8062 13.321 31.8023H98.4788C98.967 31.8023 99.4351 31.997 99.7803 32.3435C100.125 32.69 100.319 33.16 100.319 33.65C100.319 34.14 100.125 34.61 99.7803 34.9565C99.4351 35.303 98.967 35.4977 98.4788 35.4977H13.321C10.7638 35.5003 8.31219 36.5212 6.50402 38.3363C4.69586 40.1514 3.67889 42.6125 3.67629 45.1795V124.8C3.67889 127.367 4.69586 129.828 6.50402 131.643C8.31219 133.458 10.7638 134.479 13.321 134.482H149.77C152.327 134.479 154.779 133.458 156.587 131.643C158.395 129.828 159.412 127.367 159.415 124.8V89.078C159.415 88.5879 159.608 88.118 159.954 87.7715C160.299 87.4249 160.767 87.2303 161.255 87.2303C161.743 87.2303 162.211 87.4249 162.557 87.7715C162.902 88.118 163.096 88.5879 163.096 89.078V124.8C163.089 128.345 161.683 131.743 159.185 134.248C156.687 136.754 153.301 138.163 149.77 138.167Z" fill="#B1C077"/>
<path d="M161.257 120.698H1.84058V124.393H161.257V120.698Z" fill="#B1C077"/>
<path d="M105.129 163H59.0239C58.5358 163 58.0676 162.805 57.7224 162.459C57.3773 162.112 57.1833 161.642 57.1833 161.152C57.1833 160.662 57.3773 160.192 57.7224 159.846C58.0676 159.499 58.5358 159.305 59.0239 159.305C61.4781 159.305 63.3775 158.551 64.8034 157.004C68.3079 153.195 67.7753 145.932 67.7704 145.858C67.7655 145.785 67.7704 145.76 67.7704 145.711V139.276C67.7717 138.002 68.2763 136.781 69.1735 135.88C70.0707 134.98 71.2871 134.473 72.5559 134.472H91.6097C92.8785 134.473 94.095 134.98 94.9921 135.88C95.8893 136.781 96.3939 138.002 96.3952 139.276V145.711C96.3952 145.76 96.3952 145.812 96.3952 145.861C96.3952 145.91 95.8578 153.195 99.3623 157.004C100.788 158.551 102.678 159.305 105.142 159.305C105.63 159.305 106.098 159.499 106.443 159.846C106.788 160.192 106.982 160.662 106.982 161.152C106.982 161.642 106.788 162.112 106.443 162.459C106.098 162.805 105.63 163 105.142 163H105.129ZM67.6894 159.305H96.4615C92.2355 154.476 92.6404 146.593 92.7067 145.642V139.276C92.7029 138.983 92.5853 138.703 92.379 138.496C92.1727 138.289 91.894 138.171 91.6023 138.167H72.5486C72.2569 138.171 71.9782 138.289 71.7719 138.496C71.5656 138.703 71.448 138.983 71.4442 139.276V145.642C71.5105 146.593 71.9154 154.476 67.6894 159.305Z" fill="#B1C077"/>
</g>
<defs>
<clipPath id="clip0_259_427">
<rect width="188" height="163" fill="white"/>
</clipPath>
</defs>
</svg>
