<svg width="145" height="152" viewBox="0 0 145 152" fill="none" xmlns="http://www.w3.org/2000/svg">
<g clip-path="url(#clip0_264_490)">
<path d="M15.4805 53.5674C17.5851 53.5674 19.2912 51.7638 19.2912 49.539C19.2912 47.3142 17.5851 45.5107 15.4805 45.5107C13.3759 45.5107 11.6698 47.3142 11.6698 49.539C11.6698 51.7638 13.3759 53.5674 15.4805 53.5674Z" fill="#B1C077"/>
<path d="M15.4805 86.8691C17.5851 86.8691 19.2912 85.0656 19.2912 82.8408C19.2912 80.616 17.5851 78.8124 15.4805 78.8124C13.3759 78.8124 11.6698 80.616 11.6698 82.8408C11.6698 85.0656 13.3759 86.8691 15.4805 86.8691Z" fill="#B1C077"/>
<path d="M15.4805 120.174C17.5851 120.174 19.2912 118.371 19.2912 116.146C19.2912 113.921 17.5851 112.117 15.4805 112.117C13.3759 112.117 11.6698 113.921 11.6698 116.146C11.6698 118.371 13.3759 120.174 15.4805 120.174Z" fill="#B1C077"/>
<path d="M54.9269 41.3651C40.6251 41.3651 27.1336 39.4096 16.974 35.8634C6.03079 32.046 0 26.6548 0 20.6809C0 14.707 6.02744 9.31913 16.974 5.50174C27.147 1.95558 40.6251 0 54.9269 0C69.2288 0 82.7202 1.95558 92.8798 5.50174C103.826 9.31913 109.854 14.7104 109.854 20.6809C109.854 26.6514 103.826 32.046 92.8798 35.8634C82.7068 39.4096 69.2221 41.3651 54.9269 41.3651ZM54.9269 4.68803C25.322 4.68803 4.69808 13.1164 4.69808 20.6809C4.69808 28.2454 25.3321 36.6771 54.9269 36.6771C84.5218 36.6771 105.156 28.2487 105.156 20.6809C105.156 13.1131 84.5352 4.68803 54.9269 4.68803Z" fill="#B1C077"/>
<path d="M54.9269 74.4693C40.6251 74.4693 27.1336 72.5171 16.974 68.9676C6.03079 65.1502 0 59.7589 0 53.7884H4.68803C4.68803 61.3529 25.322 69.7813 54.9169 69.7813C84.5117 69.7813 105.146 61.3529 105.146 53.7884H109.834C109.834 59.7589 103.806 65.1502 92.8597 68.9676C82.7068 72.5171 69.2221 74.4693 54.9269 74.4693Z" fill="#B1C077"/>
<path d="M54.9269 106.636C40.6251 106.636 27.1336 104.68 16.974 101.134C6.03079 97.3167 0 91.9255 0 85.955H4.68803C4.68803 93.5194 25.322 101.948 54.9169 101.948C56.993 101.948 59.0825 101.904 61.1218 101.817L61.316 106.505C59.2232 106.602 57.07 106.636 54.9269 106.636Z" fill="#B1C077"/>
<path d="M54.9269 140.614C40.6251 140.614 27.1336 138.662 16.974 135.112C6.03079 131.295 0 125.904 0 119.933H4.68803C4.68803 127.498 25.322 135.926 54.9169 135.926C61.6508 135.944 68.377 135.471 75.0419 134.51L75.7116 139.147C68.8282 140.141 61.8816 140.631 54.9269 140.614Z" fill="#B1C077"/>
<path d="M4.68803 20.6809H0V119.933H4.68803V20.6809Z" fill="#B1C077"/>
<path d="M109.854 20.6809H105.166V66.7809H109.854V20.6809Z" fill="#B1C077"/>
<path d="M101.529 151.129C92.9566 151.129 84.5764 148.586 77.4485 143.824C70.3206 139.061 64.7651 132.292 61.4845 124.371C58.2039 116.451 57.3455 107.736 59.0179 99.3284C60.6904 90.9204 64.8185 83.1973 70.8803 77.1355C76.9421 71.0737 84.6653 66.9456 93.0732 65.2731C101.481 63.6007 110.196 64.459 118.116 67.7396C126.036 71.0202 132.806 76.5758 137.569 83.7037C142.331 90.8316 144.873 99.2117 144.873 107.784C144.861 119.276 140.29 130.294 132.164 138.42C124.039 146.546 113.021 151.116 101.529 151.129ZM101.529 69.1283C93.8838 69.1283 86.41 71.3954 80.053 75.643C73.6961 79.8906 68.7414 85.9279 65.8157 92.9914C62.8899 100.055 62.1243 107.827 63.6159 115.326C65.1074 122.824 68.7891 129.712 74.1952 135.118C79.6014 140.525 86.4892 144.206 93.9878 145.698C101.486 147.189 109.259 146.424 116.322 143.498C123.386 140.572 129.423 135.618 133.671 129.261C137.918 122.904 140.185 115.43 140.185 107.784C140.174 97.536 136.097 87.7107 128.85 80.4643C121.603 73.2179 111.778 69.1423 101.529 69.1316V69.1283Z" fill="#B1C077"/>
<path d="M99.5234 128.854H73.9101C73.2925 128.846 72.6872 128.68 72.1521 128.371C71.6169 128.063 71.1696 127.623 70.8528 127.092C70.4668 126.465 70.2463 125.75 70.2117 125.015C70.1772 124.279 70.3298 123.547 70.6553 122.887L91.6542 80.3595C91.9338 79.73 92.3899 79.1952 92.9674 78.8198C93.5448 78.4445 94.2187 78.2447 94.9074 78.2447C95.5961 78.2447 96.27 78.4445 96.8475 78.8198C97.4249 79.1952 97.881 79.73 98.1606 80.3595L98.1806 80.3997L108.869 103.552C109.055 103.955 109.074 104.416 108.92 104.832C108.767 105.249 108.454 105.588 108.051 105.774C107.647 105.96 107.187 105.978 106.77 105.824C106.353 105.671 106.015 105.358 105.829 104.955L95.1535 81.8295C95.0698 81.6654 94.9693 81.5917 94.9091 81.5917C94.8488 81.5917 94.7416 81.6688 94.6579 81.8429L73.6589 124.37C73.5854 124.52 73.5503 124.685 73.5567 124.852C73.5631 125.018 73.6109 125.181 73.6958 125.324C73.7158 125.354 73.813 125.505 73.9101 125.505H99.5301C99.9742 125.505 100.4 125.682 100.714 125.996C101.028 126.31 101.204 126.735 101.204 127.179C101.204 127.623 101.028 128.049 100.714 128.363C100.4 128.677 99.9742 128.854 99.5301 128.854H99.5234Z" fill="#B1C077"/>
<path d="M94.8991 128.854C94.6077 128.853 94.3216 128.777 94.0689 128.632C93.8162 128.487 93.6058 128.278 93.4583 128.027C93.3109 127.776 93.2315 127.49 93.2281 127.199C93.2248 126.908 93.2975 126.62 93.4391 126.366L103.579 108.089L110.848 93.3553C111.128 92.7259 111.584 92.1911 112.161 91.8157C112.739 91.4404 113.413 91.2406 114.102 91.2406C114.79 91.2406 115.464 91.4404 116.042 91.8157C116.619 92.1911 117.075 92.7259 117.355 93.3553L131.931 122.88C132.257 123.54 132.409 124.273 132.375 125.008C132.34 125.744 132.12 126.459 131.734 127.086C131.417 127.616 130.969 128.056 130.434 128.365C129.899 128.673 129.294 128.839 128.676 128.847H99.5235C99.0794 128.847 98.6536 128.671 98.3396 128.357C98.0256 128.043 97.8492 127.617 97.8492 127.173C97.8492 126.729 98.0256 126.303 98.3396 125.989C98.6536 125.675 99.0794 125.498 99.5235 125.498H128.676C128.773 125.498 128.87 125.348 128.891 125.318C128.975 125.174 129.023 125.012 129.03 124.845C129.036 124.679 129.001 124.513 128.927 124.363L114.351 94.8388C114.267 94.6646 114.164 94.5876 114.1 94.5876C114.036 94.5876 113.936 94.6646 113.849 94.8388L106.525 109.673L96.3658 127.983C96.2217 128.246 96.0096 128.466 95.7516 128.619C95.4936 128.772 95.1991 128.853 94.8991 128.854Z" fill="#B1C077"/>
<path d="M115.982 109.867C115.659 109.867 115.343 109.781 115.064 109.618C114.785 109.456 114.554 109.223 114.395 108.943L113.055 106.562L111.88 108.283C111.709 108.534 111.478 108.737 111.209 108.876C110.94 109.015 110.64 109.084 110.337 109.078C110.034 109.071 109.738 108.989 109.475 108.84C109.211 108.69 108.989 108.477 108.829 108.22L106.92 105.162C106.718 104.824 106.656 104.419 106.748 104.036C106.841 103.652 107.08 103.32 107.415 103.111C107.749 102.902 108.153 102.832 108.538 102.917C108.923 103.002 109.26 103.235 109.475 103.565L110.42 105.079L111.649 103.281C111.824 103.026 112.062 102.82 112.339 102.681C112.616 102.543 112.923 102.477 113.233 102.49C113.542 102.502 113.843 102.593 114.107 102.755C114.371 102.917 114.589 103.144 114.739 103.414L115.962 105.578L117.7 102.353C117.897 102.018 118.217 101.772 118.592 101.667C118.967 101.563 119.368 101.607 119.711 101.791C120.054 101.976 120.312 102.286 120.432 102.657C120.551 103.027 120.522 103.43 120.352 103.779L117.592 108.909C117.438 109.196 117.209 109.435 116.931 109.604C116.652 109.772 116.334 109.863 116.009 109.867H115.982Z" fill="#B1C077"/>
<path d="M91.3227 101.533H91.2993C90.9261 101.529 90.5608 101.425 90.2415 101.232C89.9222 101.039 89.6607 100.763 89.4844 100.434L85.8679 93.7136C85.7556 93.5196 85.6835 93.305 85.6557 93.0826C85.628 92.8602 85.6451 92.6344 85.7062 92.4188C85.7673 92.2031 85.8711 92.0019 86.0115 91.8271C86.1518 91.6523 86.3258 91.5075 86.5232 91.4012C86.7205 91.2949 86.9372 91.2293 87.1603 91.2083C87.3835 91.1873 87.6086 91.2113 87.8223 91.279C88.036 91.3466 88.234 91.4565 88.4044 91.602C88.5749 91.7476 88.7144 91.9259 88.8146 92.1264L91.3495 96.8345L93.2214 93.5261C93.3957 93.2174 93.6458 92.9582 93.9481 92.773C94.2505 92.5877 94.595 92.4826 94.9492 92.4675C95.3035 92.4525 95.6557 92.5279 95.9727 92.6868C96.2897 92.8456 96.5609 93.0826 96.7608 93.3754L98.6293 96.1079L100.113 93.7371C100.229 93.5506 100.381 93.389 100.56 93.2613C100.739 93.1336 100.942 93.0425 101.156 92.993C101.37 92.9436 101.592 92.9369 101.809 92.9732C102.026 93.0095 102.234 93.0881 102.42 93.2047C102.606 93.3212 102.768 93.4733 102.896 93.6523C103.023 93.8313 103.115 94.0337 103.164 94.248C103.213 94.4622 103.22 94.6841 103.184 94.901C103.148 95.1178 103.069 95.3254 102.952 95.5118L100.448 99.5302C100.264 99.8244 100.01 100.068 99.7088 100.24C99.4074 100.411 99.068 100.505 98.7213 100.512C98.3746 100.52 98.0315 100.44 97.7232 100.282C97.4148 100.123 97.1507 99.8901 96.955 99.6038L95.1401 96.9484L93.131 100.488C92.9472 100.805 92.6835 101.068 92.3662 101.251C92.0489 101.435 91.6892 101.532 91.3227 101.533Z" fill="#B1C077"/>
</g>
<defs>
<clipPath id="clip0_264_490">
<rect width="144.87" height="151.125" fill="white"/>
</clipPath>
</defs>
</svg>
