<svg height="24pt" viewBox="-39 0 504 504.20308" width="24pt" xmlns="http://www.w3.org/2000/svg"><path d="m401.167969 453.003906h-12.886719l-123.644531-273.066406h-102.402344l-123.648437 273.066406h-12.882813c-14.140625 0-25.601563 11.460938-25.601563 25.597656 0 14.140626 11.460938 25.601563 25.601563 25.601563h93.863281c14.140625 0 25.601563-11.460937 25.601563-25.601563 0-14.136718-11.460938-25.597656-25.601563-25.597656h-6.226562l26.792968-59.820312h146.601563l26.796875 59.820312h-6.230469c-14.136719 0-25.597656 11.460938-25.597656 25.597656 0 14.140626 11.460937 25.601563 25.597656 25.601563h93.867188c14.140625 0 25.601562-11.460937 25.601562-25.601563 0-14.136718-11.460937-25.597656-25.601562-25.597656zm-234.332031-119.519531 46.597656-85.28125 46.601562 85.28125zm0 0" fill="#cc4b4c"/><path d="m256.101562 225.417969c26.136719-3.285157 46.839844-27.007813 58.964844-48.800781 14.105469-25.34375 22.1875-60.917969 9.191406-88.082032-10.960937-22.296875-33.507812-36.5625-58.351562-36.921875-23.390625-.660156-49.636719 7.832031-52.472656 34.457031-2.816406-26.625-29.097656-35.15625-52.480469-34.476562-20.242187.414062-39.214844 9.945312-51.625 25.941406-2.652344 3.40625-4.914063 7.097656-6.742187 11.007813-7.613282 18.160156-8.671876 38.40625-2.984376 57.261719 2.695313 10.757812 6.796876 21.117187 12.203126 30.804687.59375 1.109375 1.277343 2.21875 1.960937 3.328125 12.289063 20.90625 32.257813 42.410156 57.003906 45.480469zm0 0" fill="#f9eab0"/><g fill="#7f5b53"><path d="m213.433594 111.667969c-4.449219.015625-8.164063-3.390625-8.53125-7.824219-.207032-2.507812-4.796875-61.847656 24.113281-89.597656 12.113281-11.351563 28.867187-16.328125 45.210937-13.441406 4.582032.683593 7.785157 4.898437 7.207032 9.5-.574219 4.597656-4.710938 7.894531-9.324219 7.429687-11.230469-2.195313-22.832031 1.089844-31.25 8.839844-19.171875 18.398437-20.152344 60.996093-18.890625 75.855469.195312 2.261718-.519531 4.511718-1.988281 6.246093-1.46875 1.738281-3.570313 2.8125-5.835938 2.992188-.242187 0-.480469 0-.710937 0zm0 0"/><path d="m187.835938 154.335938c-3.25.019531-6.226563-1.8125-7.679688-4.71875l-8.535156-17.066407c-1.363282-2.726562-1.167969-5.976562.511718-8.519531 1.679688-2.546875 4.585938-4 7.632813-3.820312 3.042969.183593 5.757813 1.976562 7.121094 4.703124l8.535156 17.066407c1.320313 2.636719 1.1875 5.773437-.359375 8.289062-1.542969 2.511719-4.277344 4.050781-7.226562 4.066407zm0 0"/><path d="m239.035156 154.335938c-2.957031 0-5.703125-1.53125-7.253906-4.046876-1.554688-2.515624-1.695312-5.65625-.375-8.300781l8.53125-17.066406c1.367188-2.726563 4.082031-4.519531 7.125-4.699219 3.042969-.183594 5.953125 1.273438 7.632812 3.816406 1.679688 2.546876 1.875 5.792969.511719 8.519532l-8.535156 17.066406c-1.449219 2.890625-4.40625 4.714844-7.636719 4.710938zm0 0"/></g></svg>