<svg width="134" height="134" viewBox="0 0 134 134" fill="none" xmlns="http://www.w3.org/2000/svg">
<g clip-path="url(#clip0_28_28)">
<path d="M67.0012 134.002C104.005 134.002 134.002 104.005 134.002 67.0012C134.002 29.9974 104.005 0 67.0012 0C29.9974 0 0 29.9974 0 67.0012C0 104.005 29.9974 134.002 67.0012 134.002Z" fill="white"/>
<path d="M28.7624 58.1547C28.0828 58.1547 27.4184 57.9532 26.8533 57.5756C26.2882 57.1981 25.8478 56.6614 25.5878 56.0335C25.3277 55.4056 25.2597 54.7147 25.3923 54.0482C25.5249 53.3816 25.8521 52.7694 26.3327 52.2889C26.8132 51.8083 27.4255 51.481 28.092 51.3484C28.7586 51.2159 29.4495 51.2839 30.0774 51.5439C30.7052 51.804 31.2419 52.2444 31.6195 52.8095C31.997 53.3746 32.1985 54.0389 32.1985 54.7185C32.1974 55.6295 31.835 56.5029 31.1909 57.147C30.5467 57.7912 29.6733 58.1535 28.7624 58.1547ZM19.7603 77.1516C19.0807 77.1516 18.4163 76.9501 17.8512 76.5725C17.2861 76.1949 16.8456 75.6583 16.5856 75.0304C16.3255 74.4025 16.2575 73.7116 16.3901 73.0451C16.5226 72.3785 16.8499 71.7663 17.3305 71.2857C17.811 70.8052 18.4233 70.4779 19.0899 70.3453C19.7565 70.2128 20.4473 70.2808 21.0751 70.5408C21.703 70.8009 22.2398 71.2414 22.6173 71.8065C22.9949 72.3716 23.1964 73.0358 23.1964 73.7154C23.1958 74.6266 22.8336 75.5003 22.1893 76.1446C21.545 76.7889 20.6714 77.151 19.7603 77.1516ZM35.7839 77.1516C35.1043 77.1516 34.4399 76.9501 33.8748 76.5725C33.3098 76.1949 32.8693 75.6583 32.6092 75.0304C32.3491 74.4025 32.2811 73.7116 32.4137 73.0451C32.5463 72.3785 32.8736 71.7663 33.3541 71.2857C33.8347 70.8052 34.447 70.4779 35.1136 70.3453C35.7801 70.2128 36.4709 70.2808 37.0988 70.5408C37.7267 70.8009 38.2634 71.2414 38.641 71.8065C39.0186 72.3716 39.2201 73.0358 39.2201 73.7154C39.2195 74.6258 38.8579 75.4988 38.2146 76.143C37.5713 76.7871 36.6988 77.1498 35.7884 77.1516H35.7839ZM43.6333 95.8592C42.9537 95.8592 42.2893 95.6577 41.7242 95.2801C41.1591 94.9026 40.7186 94.3659 40.4586 93.738C40.1985 93.1102 40.1305 92.4192 40.2631 91.7527C40.3957 91.0861 40.7229 90.4739 41.2035 89.9934C41.684 89.5128 42.2964 89.1855 42.9629 89.053C43.6295 88.9204 44.3203 88.9884 44.9482 89.2485C45.576 89.5085 46.1128 89.9489 46.4904 90.514C46.8679 91.0791 47.0695 91.7434 47.0695 92.4231C47.0683 93.3329 46.7068 94.2052 46.0641 94.8492C45.4214 95.4931 44.5497 95.8563 43.6399 95.8592H43.6333ZM102.769 42.1533C102.752 42.0844 100.099 34.1526 99.7093 32.9976C98.3406 28.9917 94.3192 27.5607 93.3288 27.0354C92.0825 26.3678 90.9386 25.9761 88.771 25.4219C84.897 24.4371 80.954 23.7475 76.9758 23.3589C76.9758 23.3589 66.1153 22.1594 51.8565 23.5392C49.9933 23.6904 48.1894 24.2651 46.5821 25.2195C42.2913 27.8033 40.8269 32.5436 40.2772 34.3195C38.9419 38.6526 39.3647 43.4441 40.6711 49.0724C40.8461 49.8413 40.7387 50.6474 40.3688 51.3438C39.9989 52.0401 39.391 52.5803 38.656 52.8658C37.921 53.1512 37.1078 53.163 36.3649 52.8989C35.6219 52.6348 34.9987 52.1124 34.6088 51.427C33.8823 50.1362 32.7491 49.1221 31.3858 48.5428C30.0226 47.9634 28.5058 47.8515 27.0723 48.2244C25.6387 48.5973 24.3689 49.434 23.4607 50.6042C22.5525 51.7744 22.0571 53.2121 22.0516 54.6933C22.0462 56.1746 22.531 57.616 23.4305 58.7928C24.33 59.9697 25.5936 60.8158 27.0244 61.1992C28.4551 61.5827 29.9726 61.482 31.3401 60.9128C32.7076 60.3436 33.8483 59.3378 34.5843 58.0523C34.8719 57.5439 35.2886 57.1203 35.7923 56.8245C36.296 56.5287 36.8689 56.3711 37.453 56.3677H38.1496C39.4418 56.3677 40.6995 56.7843 41.7362 57.5556C42.7729 58.327 43.5334 59.4118 43.9047 60.6495C44.4633 62.5122 45.0487 64.4574 45.6384 66.4937C45.7764 66.97 46.0167 67.7978 46.3483 68.9217C46.5859 69.5264 46.5736 70.2007 46.314 70.7963C46.0544 71.3919 45.5688 71.8599 44.9641 72.0975C44.3594 72.3351 43.6851 72.3228 43.0895 72.0632C42.4939 71.8036 42.0259 71.318 41.7883 70.7133C41.2246 69.5848 40.354 68.6382 39.2765 67.9823C38.199 67.3263 36.9583 66.9876 35.697 67.005C34.4356 67.0224 33.2048 67.3953 32.1458 68.0808C31.0869 68.7663 30.2428 69.7366 29.7105 70.8802C29.5348 71.2427 29.2597 71.5479 28.9173 71.7603C28.575 71.9726 28.1794 72.0835 27.7765 72.0798C27.3656 72.0775 26.9637 71.9587 26.6175 71.7374C26.2713 71.516 25.9949 71.201 25.8203 70.829C25.1642 69.4519 24.0586 68.3392 22.6856 67.6745C21.3126 67.0098 19.7541 66.8325 18.2669 67.172C16.7797 67.5115 15.4525 68.3476 14.5039 69.5423C13.5554 70.737 13.0421 72.2191 13.0486 73.7446C13.0552 75.27 13.5811 76.7478 14.5398 77.9343C15.4985 79.1209 16.8329 79.9454 18.3229 80.2722C19.813 80.599 21.3698 80.4084 22.7371 79.7319C24.1044 79.0555 25.2005 77.9335 25.8448 76.5508C26.024 76.1912 26.2999 75.8887 26.6415 75.6773C26.9831 75.4659 27.377 75.3539 27.7787 75.3539C28.1805 75.3539 28.5743 75.4659 28.9159 75.6773C29.2575 75.8887 29.5334 76.1912 29.7127 76.5508C30.2448 77.6945 31.0888 78.6649 32.1476 79.3506C33.2064 80.0363 34.4372 80.4094 35.6985 80.4271C36.9598 80.4447 38.2006 80.1062 39.2782 79.4505C40.3558 78.7947 41.2266 77.8483 41.7905 76.7199C41.9947 76.3105 42.3087 75.966 42.6973 75.7247C43.086 75.4834 43.5341 75.3549 43.9916 75.3535H45.4715C46.2914 75.3537 47.0899 75.6145 47.7519 76.0981C48.4139 76.5817 48.9051 77.2631 49.1547 78.0441C50.1717 81.231 51.3802 84.8742 52.7267 88.7265C52.8063 88.96 52.8294 89.2091 52.7939 89.4533C52.7585 89.6975 52.6656 89.9297 52.5228 90.1309C52.38 90.3322 52.1915 90.4967 51.9727 90.6108C51.754 90.7249 51.5112 90.7854 51.2645 90.7873C50.958 90.7859 50.6589 90.6942 50.4044 90.5236C50.1498 90.3529 49.9513 90.1111 49.8335 89.8282C49.2374 88.3965 48.1637 87.2156 46.795 86.4865C45.4263 85.7573 43.8472 85.5249 42.3265 85.8288C40.8057 86.1327 39.4374 86.9542 38.4541 88.1534C37.4708 89.3527 36.9334 90.8556 36.9334 92.4064C36.9334 93.9572 37.4708 95.4601 38.4541 96.6593C39.4374 97.8586 40.8057 98.68 42.3265 98.984C43.8472 99.2879 45.4263 99.0556 46.795 98.3264C48.1637 97.5972 49.2374 96.4163 49.8335 94.9847C49.9523 94.7085 50.1499 94.4734 50.4017 94.3091C50.6535 94.1448 50.9483 94.0586 51.2489 94.0611H51.9522C52.737 94.061 53.5031 94.3002 54.1485 94.7467C54.7938 95.1932 55.2877 95.8259 55.5642 96.5603C56.5546 99.1887 57.5983 101.846 58.6799 104.472C59.6881 106.907 61.6665 111.478 66.1443 113.445C70.1836 115.226 74.4031 114.113 76.6042 113.327C82.4283 110.621 85.7287 107.701 91.8511 103.669C93.1641 102.805 95.1893 101.517 97.3369 99.153C98.3139 98.0848 100.495 95.63 101.071 91.7465C101.336 89.9355 101.221 88.0892 100.733 86.3252L100.822 86.2651C101.398 85.8781 101.798 85.2787 101.933 84.598C102.068 83.9173 101.928 83.2108 101.543 82.6331L82.8267 54.6096C82.4393 54.0341 81.8401 53.635 81.1597 53.4995C80.4793 53.364 79.7729 53.5031 79.1946 53.8863L70.1235 59.9552C69.548 60.3426 69.149 60.9418 69.0135 61.6222C68.878 62.3026 69.017 63.0089 69.4002 63.5872L88.1189 91.6108C88.3789 91.998 88.7374 92.309 89.1575 92.5116C89.5776 92.7143 90.0442 92.8013 90.5091 92.7636C90.4362 93.0067 90.3469 93.2446 90.242 93.4757C89.951 94.1092 89.5485 94.6851 89.0536 95.176C83.0737 100.346 78.5715 103.103 76.0544 104.49C74.8615 105.146 73.0367 106.295 71.4477 105.462C69.0864 104.227 66.4825 97.2858 66.1331 96.0885C63.3223 86.4521 63.2688 86.1494 51.9321 44.1964C51.625 43.0681 50.401 39.1534 51.8431 36.5607C52.1545 36.0272 52.533 35.5358 52.9692 35.0984C55.8379 32.2876 79.751 33.1401 84.2843 34.2706C86.7502 34.8849 89.3095 35.7684 90.7717 38.0162C91.5639 39.2313 91.9423 40.6979 92.245 41.8752C92.6503 43.4531 92.8677 45.0733 92.8926 46.7023C93.0306 48.2445 93.0395 48.9456 93.587 49.3306C93.9564 49.5932 94.3904 49.5866 95.5543 49.3573C97.041 49.0658 98.8614 48.5695 101.879 47.0985C102.649 46.7224 102.874 46.5865 103.074 46.2994C103.64 45.5027 103.373 44.4723 102.774 42.1533H102.769ZM90.6516 85.1301C90.7663 84.5547 91.049 84.0262 91.4641 83.6116C91.8791 83.1969 92.4078 82.9146 92.9833 82.8004C93.5587 82.6861 94.1551 82.7451 94.6971 82.9698C95.239 83.1945 95.7022 83.5749 96.028 84.0629C96.3538 84.5508 96.5276 85.1243 96.5274 85.711C96.5273 86.2977 96.3532 86.8712 96.0271 87.3589C95.7011 87.8467 95.2377 88.2268 94.6956 88.4512C94.1535 88.6756 93.557 88.7343 92.9816 88.6197C92.2106 88.465 91.5327 88.0106 91.0966 87.3562C90.6605 86.7019 90.5019 85.9012 90.6559 85.1301H90.6516Z" fill="#F15E40"/>
</g>
<defs>
<clipPath id="clip0_28_28">
<rect width="134" height="134" fill="white"/>
</clipPath>
</defs>
</svg>
