<svg width="139" height="161" viewBox="0 0 139 161" fill="none" xmlns="http://www.w3.org/2000/svg">
<g clip-path="url(#clip0_261_473)">
<path d="M27.9067 70.9207H23.8322V17.5916C23.8371 12.9275 25.6962 8.45586 29.0017 5.15786C32.3072 1.85985 36.789 0.00489154 41.4637 0H92.1579C96.832 0.00586956 101.313 1.86127 104.618 5.15917C107.922 8.45706 109.781 12.9282 109.786 17.5916V37.4339H105.711V17.5916C105.708 14.0057 104.28 10.5675 101.739 8.03159C99.1976 5.49566 95.7519 4.0692 92.1579 4.06528H41.4637C37.8694 4.0692 34.4234 5.49554 31.8818 8.03136C29.3402 10.5672 27.9106 14.0054 27.9067 17.5916V70.9207Z" fill="#B1C077"/>
<path d="M92.1579 161H41.4637C36.7897 160.995 32.3084 159.141 29.0031 155.843C25.6977 152.546 23.838 148.076 23.8322 143.412V115.003H27.9067V143.401C27.9106 146.987 29.3403 150.425 31.882 152.96C34.4237 155.495 37.8697 156.921 41.4637 156.924H92.1579C95.7513 156.92 99.1964 155.494 101.737 152.959C104.278 150.423 105.707 146.986 105.711 143.401V93.8637H109.786V143.412C109.78 148.075 107.921 152.545 104.616 155.842C101.312 159.139 96.8313 160.994 92.1579 161Z" fill="#B1C077"/>
<path d="M107.748 133.293H25.8694V137.359H107.748V133.293Z" fill="#B1C077"/>
<path d="M107.748 18.9368H25.8694V23.0021H107.748V18.9368Z" fill="#B1C077"/>
<path d="M66.8108 149.244C67.9482 149.244 68.8703 148.271 68.8703 147.071C68.8703 145.871 67.9482 144.898 66.8108 144.898C65.6734 144.898 64.7513 145.871 64.7513 147.071C64.7513 148.271 65.6734 149.244 66.8108 149.244Z" fill="#B1C077"/>
<path d="M89.5984 102.234C89.1227 102.233 88.6524 102.134 88.2176 101.941C87.7828 101.749 87.393 101.468 87.073 101.116C86.7531 100.765 86.5101 100.351 86.3594 99.9012C86.2088 99.451 86.1538 98.9744 86.1981 98.5018L86.8981 91.0143C86.9266 90.6966 86.8419 90.3791 86.659 90.1175C86.4761 89.856 86.2067 89.6671 85.898 89.5841C83.1984 88.8593 80.8134 87.2671 79.112 85.0538C77.4106 82.8405 76.4877 80.1295 76.486 77.3402V49.493C76.4899 45.7568 77.9792 42.1748 80.627 39.5329C83.2749 36.8911 86.865 35.4051 90.6096 35.4012H124.869C128.613 35.4051 132.204 36.8911 134.851 39.5329C137.499 42.1748 138.989 45.7568 138.993 49.493V77.3402C138.99 80.5831 137.746 83.7025 135.516 86.0613C133.285 88.42 130.236 89.84 126.991 90.0312C126.716 90.0457 126.445 90.0979 126.184 90.1865L90.7097 102.068C90.3511 102.185 89.9755 102.241 89.5984 102.234ZM90.6096 39.4665C87.9453 39.4694 85.391 40.5267 83.507 42.4064C81.6231 44.2861 80.5634 46.8347 80.5605 49.493V77.3402C80.5627 79.238 81.1922 81.082 82.3514 82.5867C83.5106 84.0914 85.1347 85.1726 86.9722 85.6629C88.2068 85.9969 89.2836 86.7551 90.0128 87.8037C90.7419 88.8524 91.0766 90.1242 90.9578 91.395L90.3467 97.8809L124.887 86.3318C125.486 86.1275 126.108 86.0032 126.739 85.9623C128.944 85.8304 131.015 84.8639 132.529 83.2602C134.044 81.6564 134.888 79.5363 134.888 77.3328V49.493C134.886 46.8347 133.826 44.2861 131.942 42.4064C130.058 40.5267 127.504 39.4694 124.839 39.4665H90.6096Z" fill="#B1C077"/>
<path d="M40.5266 121.759C40.1642 121.759 39.8042 121.701 39.4598 121.589L10.8456 112.246C10.7242 112.212 10.6004 112.188 10.4752 112.172C7.71556 112.068 5.10279 110.905 3.18204 108.926C1.26129 106.946 0.181036 104.302 0.166763 101.547L-0.00731878 77.791C-0.0211612 74.9516 1.09259 72.2222 3.09034 70.1999C5.0881 68.1775 7.80727 67.0269 10.6531 66.9996L40.7452 66.7852H40.823C43.6572 66.7851 46.3765 67.9026 48.3886 69.8942C50.4007 71.8858 51.5424 74.59 51.5648 77.4178L51.7389 101.178C51.7507 102.584 51.483 103.978 50.9515 105.28C50.42 106.583 49.6351 107.767 48.6423 108.765C47.1821 110.244 45.3247 111.271 43.2936 111.721L43.9306 118.004C43.9782 118.479 43.9256 118.958 43.7763 119.412C43.6269 119.865 43.3841 120.282 43.0635 120.636C42.7429 120.99 42.3515 121.273 41.9146 121.467C41.4776 121.661 41.0048 121.762 40.5266 121.763V121.759ZM12.1125 108.384L39.7747 117.413L39.2005 111.747C39.1048 110.836 39.3565 109.922 39.9056 109.187C40.4547 108.452 41.2609 107.95 42.1638 107.782C43.5143 107.534 44.7572 106.882 45.7272 105.912C46.3444 105.294 46.8324 104.56 47.1631 103.752C47.4937 102.944 47.6604 102.079 47.6533 101.207L47.4792 77.4473C47.4646 75.6927 46.7556 74.0148 45.5068 72.7793C44.258 71.5437 42.5705 70.8504 40.8118 70.8505H40.7636L10.6678 71.0648C8.90329 71.0853 7.21841 71.8006 5.98001 73.0548C4.74161 74.3091 4.05008 76.0008 4.05607 77.7615L4.23015 101.518C4.23767 103.229 4.90856 104.871 6.10236 106.1C7.29616 107.329 8.92029 108.05 10.6345 108.111C11.1304 108.142 11.6205 108.234 12.0939 108.384H12.1125Z" fill="#B1C077"/>
<path d="M112.671 60.1255C111.158 60.1263 109.679 59.6793 108.421 58.8412C107.162 58.003 106.181 56.8114 105.602 55.4169C105.022 54.0225 104.87 52.4879 105.165 51.0073C105.46 49.5267 106.188 48.1665 107.258 47.0988C108.327 46.0311 109.69 45.3039 111.174 45.0092C112.658 44.7144 114.196 44.8653 115.594 45.4428C116.992 46.0203 118.187 46.9985 119.027 48.2536C119.868 49.5087 120.317 50.9843 120.317 52.4939C120.314 54.5164 119.507 56.4553 118.074 57.8857C116.641 59.3162 114.698 60.1216 112.671 60.1255ZM112.671 48.1884C111.818 48.1877 110.983 48.4395 110.273 48.9122C109.563 49.3848 109.009 50.057 108.682 50.8437C108.355 51.6303 108.269 52.4961 108.435 53.3316C108.601 54.167 109.012 54.9345 109.615 55.537C110.218 56.1395 110.987 56.55 111.824 56.7164C112.662 56.8828 113.529 56.7978 114.318 56.472C115.107 56.1462 115.781 55.5944 116.255 54.8863C116.73 54.1782 116.983 53.3456 116.983 52.4939C116.982 51.3529 116.527 50.2589 115.719 49.4518C114.911 48.6447 113.815 48.1903 112.671 48.1884Z" fill="#B1C077"/>
<path d="M95.2176 72.5838C93.7047 72.5838 92.2259 72.1362 90.9681 71.2976C89.7102 70.4591 88.7298 69.2672 88.1508 67.8727C87.5719 66.4782 87.4204 64.9437 87.7156 63.4633C88.0107 61.9829 88.7393 60.6231 89.809 59.5558C90.8787 58.4885 92.2416 57.7616 93.7253 57.4671C95.2091 57.1727 96.7471 57.3238 98.1448 57.9014C99.5424 58.479 100.737 59.4572 101.577 60.7122C102.418 61.9672 102.867 63.4428 102.867 64.9522C102.865 66.9756 102.058 68.9156 100.624 70.3464C99.19 71.7772 97.2456 72.5818 95.2176 72.5838ZM95.2176 60.6466C94.3641 60.6466 93.5298 60.8992 92.8201 61.3722C92.1105 61.8453 91.5574 62.5178 91.2308 63.3045C90.9042 64.0912 90.8187 64.9569 90.9852 65.7921C91.1518 66.6273 91.5627 67.3945 92.1662 67.9966C92.7697 68.5987 93.5386 69.0088 94.3757 69.1749C95.2128 69.3411 96.0804 69.2558 96.8689 68.9299C97.6575 68.604 98.3315 68.0522 98.8056 67.3442C99.2798 66.6361 99.5329 65.8037 99.5329 64.9522C99.5319 63.8106 99.0769 62.716 98.2678 61.9088C97.4588 61.1016 96.3617 60.6476 95.2176 60.6466Z" fill="#B1C077"/>
<path d="M112.671 85.042C111.158 85.0428 109.679 84.5957 108.42 83.7574C107.162 82.9191 106.181 81.7273 105.602 80.3326C105.022 78.9379 104.87 77.4032 105.165 75.9224C105.46 74.4417 106.189 73.0815 107.259 72.014C108.329 70.9465 109.692 70.2196 111.176 69.9252C112.66 69.6309 114.199 69.7823 115.596 70.3604C116.994 70.9385 118.189 71.9172 119.029 73.1728C119.869 74.4284 120.317 75.9044 120.317 77.4141C120.314 79.4362 119.507 81.3747 118.074 82.8046C116.641 84.2345 114.698 85.0391 112.671 85.042ZM112.671 73.1086C111.818 73.1079 110.983 73.3597 110.273 73.8324C109.563 74.305 109.009 74.9772 108.682 75.7639C108.355 76.5506 108.269 77.4163 108.435 78.2518C108.601 79.0872 109.012 79.8547 109.615 80.4572C110.218 81.0597 110.987 81.4702 111.824 81.6366C112.662 81.803 113.529 81.718 114.318 81.3922C115.107 81.0664 115.781 80.5146 116.255 79.8065C116.73 79.0984 116.983 78.2658 116.983 77.4141C116.982 76.2731 116.527 75.1791 115.719 74.372C114.911 73.5649 113.815 73.1105 112.671 73.1086Z" fill="#B1C077"/>
<path d="M107.959 54.4447L99.2065 60.2469L101.051 63.0173L109.804 57.2151L107.959 54.4447Z" fill="#B1C077"/>
<path d="M100.104 66.5832L97.9742 69.142L106.058 75.8407L108.188 73.2819L100.104 66.5832Z" fill="#B1C077"/>
<path d="M11.8123 101.015C11.5305 101.015 11.2545 100.936 11.0165 100.785C10.7785 100.634 10.5885 100.419 10.4687 100.165C10.349 99.9103 10.3044 99.6271 10.3403 99.3482C10.3762 99.0694 10.4911 98.8065 10.6714 98.5905L27.1102 78.8406C27.2345 78.6911 27.3871 78.5675 27.5592 78.4769C27.7314 78.3862 27.9198 78.3303 28.1136 78.3123C28.3074 78.2943 28.5028 78.3145 28.6888 78.3719C28.8748 78.4292 29.0477 78.5226 29.1975 78.6466C29.3473 78.7706 29.4712 78.9228 29.562 79.0946C29.6529 79.2663 29.7089 79.4543 29.727 79.6476C29.745 79.841 29.7248 80.0361 29.6673 80.2216C29.6098 80.4072 29.5162 80.5796 29.3919 80.7291L12.9606 100.479C12.8208 100.647 12.6453 100.783 12.4468 100.876C12.2482 100.968 12.0315 101.016 11.8123 101.015Z" fill="#B1C077"/>
<path d="M21.9506 101.699C21.6691 101.698 21.3935 101.618 21.156 101.467C20.9186 101.316 20.7291 101.101 20.6098 100.847C20.4905 100.593 20.4464 100.31 20.4824 100.031C20.5185 99.7525 20.6333 99.49 20.8134 99.2742L37.2522 79.5243C37.3764 79.3748 37.529 79.2512 37.7011 79.1606C37.8733 79.0699 38.0617 79.014 38.2555 78.996C38.4493 78.978 38.6448 78.9982 38.8308 79.0556C39.0168 79.113 39.1896 79.2063 39.3394 79.3303C39.4892 79.4543 39.6131 79.6065 39.7039 79.7783C39.7948 79.9501 39.8509 80.138 39.869 80.3314C39.887 80.5248 39.8667 80.7198 39.8092 80.9054C39.7517 81.0909 39.6582 81.2634 39.5339 81.4128L23.0914 101.163C22.9524 101.33 22.7782 101.465 22.581 101.558C22.3838 101.65 22.1685 101.699 21.9506 101.699Z" fill="#B1C077"/>
<path d="M41.1303 87.3038H15.3979C15.0049 87.3038 14.6281 87.1481 14.3502 86.8708C14.0724 86.5936 13.9163 86.2176 13.9163 85.8255C13.9163 85.4335 14.0724 85.0574 14.3502 84.7802C14.6281 84.503 15.0049 84.3472 15.3979 84.3472H41.1303C41.5232 84.3472 41.9001 84.503 42.178 84.7802C42.4559 85.0574 42.6119 85.4335 42.6119 85.8255C42.6119 86.2176 42.4559 86.5936 42.178 86.8708C41.9001 87.1481 41.5232 87.3038 41.1303 87.3038Z" fill="#B1C077"/>
<path d="M36.341 95.342H10.6086C10.2156 95.342 9.8388 95.1862 9.56094 94.909C9.28308 94.6317 9.12695 94.2557 9.12695 93.8637C9.12695 93.4716 9.28308 93.0956 9.56094 92.8184C9.8388 92.5411 10.2156 92.3854 10.6086 92.3854H36.341C36.7339 92.3854 37.1107 92.5411 37.3886 92.8184C37.6665 93.0956 37.8226 93.4716 37.8226 93.8637C37.8226 94.2557 37.6665 94.6317 37.3886 94.909C37.1107 95.1862 36.7339 95.342 36.341 95.342Z" fill="#B1C077"/>
</g>
<defs>
<clipPath id="clip0_261_473">
<rect width="139" height="161" fill="white"/>
</clipPath>
</defs>
</svg>
