<svg width="43" height="66" viewBox="0 0 43 66" fill="none" xmlns="http://www.w3.org/2000/svg">
<path d="M25.4778 25H23.8414C23.3869 25 23.2051 24.7273 23.5687 24.3636L38.296 9.63636C39.1142 8.81818 39.4778 7.90909 39.4778 6.81818V2.72727C39.4778 1.27273 38.6596 0.454547 37.2051 0.454547H6.20508C4.75053 0.454547 3.93235 1.27273 3.93235 2.72727V5.36363C3.93235 6.81818 4.75053 7.63636 6.20508 7.63636H29.6596C30.1142 7.63636 30.2051 7.90909 29.9324 8.27273L12.0233 26.7273C11.1142 27.7273 10.9324 28.8182 11.6596 29.9091L12.7505 31.7273C13.4778 33 14.4778 33.0909 15.7505 32.6364C17.3869 32 19.2051 31.7273 21.2051 31.7273C28.1142 31.7273 33.7505 36.7273 33.7505 44.4545C33.7505 53.0909 28.3869 58.8182 20.296 58.8182C15.5687 58.8182 11.7505 57.3636 9.56871 53.0909C8.84144 51.8182 7.93235 51.3636 6.56871 51.8182L2.75053 53.0909C1.29599 53.6364 0.750532 54.7273 1.47781 56.0909C4.84144 62.4545 12.296 65.9091 20.296 65.9091C33.5687 65.9091 42.2051 57.3636 42.2051 44.4545C42.2051 34.0909 33.6596 25 25.4778 25Z" fill="#B1C077"/>
</svg>
