<svg width="39" height="66" viewBox="0 0 39 66" fill="none" xmlns="http://www.w3.org/2000/svg">
<path d="M35.9323 58.8182H8.56871C8.20508 58.8182 8.02326 58.5455 8.02326 58.2727V55.3636C8.02326 48.6364 11.6596 44.6364 19.8414 39.0909L26.7505 34.3636C35.5687 28.3636 37.7505 24.2727 37.7505 16.0909C37.7505 6.54545 31.3869 0.545451 20.0233 0.545451C10.4778 0.545451 4.11417 5.27273 0.932351 12.2727C0.295987 13.6364 0.841442 14.6364 2.20508 15.2727L5.56871 16.7273C6.93235 17.3636 7.84144 16.9091 8.56871 15.6364C11.296 10.5455 15.2051 8 20.2051 8C26.1142 8 29.9323 11.2727 29.9323 16.0909C29.9323 21.9091 27.6596 24.2727 21.0233 29L14.1142 33.9091C4.93235 40.5455 0.386896 45.5455 0.386896 54.3636V63.7273C0.386896 65.1818 1.20508 66 2.65962 66H35.9323C37.3869 66 38.2051 65.1818 38.2051 63.7273V61.0909C38.2051 59.6364 37.3869 58.8182 35.9323 58.8182Z" fill="#B1C077"/>
</svg>
